<?xml version="1.0" encoding="utf-8"?><svg xmlns="http://www.w3.org/2000/svg" xmlns:xlink="http://www.w3.org/1999/xlink"><symbol viewBox="0 0 21 19" id="basket" xmlns="http://www.w3.org/2000/svg"><path d="M20 3.364h.15v0V3.35a.617.617 0 00-.013-.109.45.45 0 00-.113-.23l-.004-.004c-.083-.083-.203-.203-.429-.203H4.17L3.786.81C3.78.665 3.675.55 3.583.482A.63.63 0 003.227.35H.773s0 0 0 0C.616.35.473.403.37.506A.559.559 0 00.214.91c0 .157.053.3.156.403a.559.559 0 00.403.156h2.004l1.94 9.86s0 0 0 0c.259 1.382 1.55 2.413 2.929 2.413h9.409c.157 0 .299-.053.402-.156a.558.558 0 00.157-.403c0-.157-.053-.3-.157-.403a.559.559 0 00-.402-.156H7.727c-.53 0-1.054-.232-1.376-.634l11.697-1.603a.481.481 0 00.32-.146.483.483 0 00.145-.31l1.633-6.53.004-.018v-.018H20zm-1.172.477l-1.322 5.524-11.704 1.523-1.41-7.047h14.436zM7.318 14.26a2.176 2.176 0 00-2.195 2.195c0 1.228.967 2.195 2.195 2.195a2.176 2.176 0 002.196-2.195 2.175 2.175 0 00-2.196-2.196zm0 3.272c-.572 0-1.077-.506-1.077-1.077 0-.572.505-1.078 1.077-1.078s1.077.506 1.077 1.078c0 .571-.505 1.077-1.077 1.077zM15.5 14.26a2.176 2.176 0 00-2.195 2.195c0 1.228.967 2.195 2.195 2.195a2.176 2.176 0 002.196-2.195 2.176 2.176 0 00-2.196-2.196zm0 3.272c-.571 0-1.077-.506-1.077-1.077 0-.572.506-1.078 1.077-1.078.572 0 1.078.506 1.078 1.078 0 .571-.506 1.077-1.078 1.077z" stroke="#553280" stroke-width=".3"/></symbol><symbol viewBox="0 0 23 23" id="bed" xmlns="http://www.w3.org/2000/svg"><g clip-path="url(#bclip0_0:206)"><path d="M23 12.764c0-.761-.416-1.447-1.087-1.79-.683-.349-1.568-.526-2.63-.526H7.742a2.309 2.309 0 00-.543-1.099L5.562 7.53c-.405-.45-.987-.723-1.639-.769l-.294-.02c-.15-.011-.303.01-.45.059v-.962c0-.337-.142-.641-.369-.857.23-.275.369-.63.369-1.016 0-.877-.713-1.59-1.59-1.59A1.591 1.591 0 00.37 4.98 1.18 1.18 0 000 5.837v14.339c0 .248.201.45.45.45H2a.45.45 0 00.447-.408c.053-.566.353-2.12 1.094-2.816h1.203a.45.45 0 000-.898H.898v-3.955h5.996v1.17c0 .693.564 1.257 1.256 1.257h13.594c.12 0 .242-.018.358-.052v1.58h-2.476-10.93a.45.45 0 100 .898H19.46c.739.695 1.04 2.25 1.094 2.816a.45.45 0 00.447.407h1.55a.45.45 0 00.45-.45v-7.412zM3.18 8.268c.006-.192-.02-.39.138-.53.159-.142.349-.095.542-.082.424.03.782.194 1.034.475L6.53 9.95c.265.294.392.705.358 1.156-.013.174-.01.328-.157.45-.133.113-.279.092-.44.087-.452-.013-.848-.183-1.113-.478l-1.637-1.82c-.264-.294-.376-.687-.362-1.078zM.898 11.65V5.837c0-.156.128-.284.284-.284h.814c.157 0 .284.128.284.284v5.813H.898zm2.28-1.365l1.229 1.365H3.179v-1.365zM1.59 3.273a.692.692 0 11-.001 1.383.692.692 0 01.001-1.383zm.02 16.454h-.71v-2.325h1.506c-.486.796-.706 1.78-.797 2.325zm6.542-5.65a.358.358 0 01-.358-.357v-2.374h11.49c.919 0 1.666.144 2.221.428.369.189.598.568.598.99v.956c0 .197-.16.357-.358.357H8.15zm13.24 5.65c-.09-.544-.31-1.529-.796-2.325h1.507v2.325h-.71z"/><path d="M7.135 16.781a.453.453 0 00-.587-.243.453.453 0 00-.243.587c.094.226.36.337.587.243a.454.454 0 00.243-.587z"/></g><defs><clipPath id="bclip0_0:206"><path d="M0 0h23v23H0z"/></clipPath></defs></symbol><symbol viewBox="0 0 12 10" id="burger" xmlns="http://www.w3.org/2000/svg"><rect width="12" height="1.5" rx=".75"/><rect y="4" width="12" height="1.5" rx=".75"/><rect y="8" width="12" height="1.5" rx=".75"/></symbol><symbol viewBox="0 0 15 15" id="clock" xmlns="http://www.w3.org/2000/svg"><g clip-path="url(#dclip0_0:744)"><path d="M13.422 3.947a.625.625 0 00-.29.834A6.257 6.257 0 017.5 13.75 6.257 6.257 0 011.249 7.5 6.257 6.257 0 017.5 1.25c1.428 0 2.77.466 3.88 1.348a.625.625 0 10.778-.978A7.512 7.512 0 007.5 0C3.365 0 0 3.365 0 7.5S3.365 15 7.5 15 15 11.635 15 7.5c0-1.146-.25-2.244-.744-3.263a.624.624 0 00-.834-.29z"/><path d="M7.5 2.5a.625.625 0 00-.625.625V7.5c0 .345.28.625.625.625h3.125a.625.625 0 000-1.25h-2.5v-3.75A.625.625 0 007.5 2.5z"/></g><defs><clipPath id="dclip0_0:744"><path d="M0 0h15v15H0z"/></clipPath></defs></symbol><symbol viewBox="0 0 23 22" id="cosmetics" xmlns="http://www.w3.org/2000/svg"><g clip-path="url(#eclip0_0:191)"><path d="M20.572 11.776c0-.71-.604-1.289-1.347-1.289h-7.276V8.594c0-.851-.724-1.544-1.614-1.544h-.542V4.043a.44.44 0 00-.449-.43h-.359V2.579h.27a.44.44 0 00.449-.43V.43a.44.44 0 00-.45-.43H6.56c-.644 0-1.168.501-1.168 1.117v2.497h-.36a.44.44 0 00-.448.43V7.05h-.542c-.89 0-1.614.693-1.614 1.544v3.998c0 .237.201.43.45.43a.44.44 0 00.448-.43V8.594c0-.377.321-.684.716-.684h6.293c.395 0 .716.307.716.684v1.893H9.524c-.743 0-1.347.578-1.347 1.289v2.062c0 .33.13.63.344.86-.214.227-.344.528-.344.858v5.155c0 .15.027.295.077.43h-3.58c-.743 0-1.348-.578-1.348-1.289v-3.394a.44.44 0 00-.449-.43.44.44 0 00-.449.43v3.394C2.428 21.036 3.435 22 4.674 22h14.55c.744 0 1.348-.578 1.348-1.289v-5.155c0-.33-.13-.63-.344-.859.214-.228.344-.53.344-.86v-2.061zM6.29 1.116c0-.141.121-.257.27-.257h2.245v.86h-.27a.44.44 0 00-.448.429v1.466H6.29V1.117zM5.482 7.05V4.473h3.413V7.05H5.482zm3.593 4.726a.44.44 0 01.449-.43h9.7a.44.44 0 01.45.43v2.062a.44.44 0 01-.45.43h-9.7a.44.44 0 01-.45-.43v-2.062zm10.599 8.935a.44.44 0 01-.45.43h-9.7a.44.44 0 01-.45-.43v-5.155a.44.44 0 01.45-.43h9.7a.44.44 0 01.45.43v5.155z"/><path d="M17.249 17.704H11.5a.44.44 0 00-.45.43c0 .237.202.43.45.43h5.749a.44.44 0 00.449-.43.44.44 0 00-.45-.43zM2.877 14.955a.463.463 0 00.318-.126.424.424 0 00.131-.304.423.423 0 00-.131-.304.463.463 0 00-.635 0 .423.423 0 00-.132.304c0 .113.048.224.132.304.083.08.199.126.317.126z"/></g><defs><clipPath id="eclip0_0:191"><path d="M0 0h23v22H0z"/></clipPath></defs></symbol><symbol viewBox="0 0 12 23" id="facebook" xmlns="http://www.w3.org/2000/svg"><path fill-rule="evenodd" clip-rule="evenodd" d="M7.553 22.99V12.925h3.118l.467-3.922H7.553V6.498c0-1.135.291-1.909 1.794-1.909l1.918-.001V1.08c-.332-.048-1.47-.155-2.794-.155-2.765 0-4.657 1.828-4.657 5.185v2.893H.688v3.922h3.126V22.99h3.739z"/></symbol><symbol viewBox="0 0 26 26" id="facebook2" xmlns="http://www.w3.org/2000/svg"><path d="M21.667 0H4.333A4.333 4.333 0 000 4.333v17.334A4.333 4.333 0 004.333 26h17.334A4.333 4.333 0 0026 21.667V4.333A4.333 4.333 0 0021.667 0z"/><path fill-rule="evenodd" clip-rule="evenodd" d="M17.553 25.99V15.925h3.118l.467-3.922h-3.585V9.498c0-1.135.291-1.909 1.794-1.909l1.918-.001V4.08c-.332-.048-1.47-.155-2.794-.155-2.764 0-4.657 1.828-4.657 5.185v2.893h-3.126v3.922h3.126V25.99h3.739z"/></symbol><symbol viewBox="0 0 22 22" id="feeder" xmlns="http://www.w3.org/2000/svg"><g clip-path="url(#hclip0_0:197)"><path d="M20.514 8.664A5.041 5.041 0 0022 5.076c0-1.356-.528-2.63-1.486-3.589A5.041 5.041 0 0016.925.001c-1.355 0-2.63.528-3.588 1.486-1.026 1.026-1.452 2.161-1.903 3.363-.138.367-.277.736-.435 1.111C8.44 3.972 5.93 2.797 4.21 2.797c-.762 0-1.366.219-1.797.65-.911.91-.858 2.62.15 4.81.261.567.578 1.152.945 1.746a6.295 6.295 0 00-1.653 1.19A6.29 6.29 0 000 15.67a6.29 6.29 0 001.854 4.477A6.29 6.29 0 006.331 22a6.29 6.29 0 004.476-1.854 6.293 6.293 0 001.19-1.65c1.796 1.11 3.471 1.742 4.76 1.742.762 0 1.366-.219 1.797-.65.773-.773.859-2.1.246-3.837-.502-1.425-1.474-3.095-2.76-4.75.375-.158.745-.297 1.111-.435 1.202-.45 2.337-.877 3.363-1.903zM10.159 19.498a5.378 5.378 0 01-3.828 1.586 5.378 5.378 0 01-3.829-1.586A5.378 5.378 0 01.917 15.67c0-1.446.563-2.805 1.585-3.828.443-.442.949-.8 1.507-1.064.172.253.353.508.54.762a4.503 4.503 0 00-1.4 7.31 4.484 4.484 0 003.182 1.316 4.484 4.484 0 004.129-2.714c.255.189.51.37.762.541a5.38 5.38 0 01-1.063 1.505zm-5.222-7.127c.06-.026.132-.047.202-.065a29.217 29.217 0 002.155 2.401c.79.79 1.599 1.514 2.406 2.16a37.6 37.6 0 01-.05.149 3.57 3.57 0 01-3.32 2.233A3.57 3.57 0 013.8 18.202a3.585 3.585 0 011.138-5.831zm12.999 3.686c.48 1.361.469 2.385-.03 2.884-.253.253-.639.38-1.148.381-1.213 0-2.885-.688-4.683-1.863a.463.463 0 00-.063-.04c-1.336-.88-2.738-2.028-4.07-3.36a28.161 28.161 0 01-2.275-2.563 22.753 22.753 0 01-1.124-1.57 16.215 16.215 0 01-1.148-2.052c-.824-1.79-.946-3.168-.335-3.779.253-.253.639-.38 1.148-.38 1.539 0 3.966 1.18 6.394 3.1A9.895 9.895 0 019.018 9.06l-.068.073-.071.074-.147.15a.457.457 0 00-.073.553c.284.492.633.973 1.026 1.424a9.712 9.712 0 002.406 2.008c.017.01.035.018.052.025l.006.003a.465.465 0 00.054.018h.001a.453.453 0 00.056.011h.002a.429.429 0 00.057.004h.005c.012 0 .025 0 .037-.002h.006a.448.448 0 00.04-.006h.002a.463.463 0 00.084-.026h.002a.456.456 0 00.037-.018l.007-.003a.404.404 0 00.067-.045l.005-.004a.444.444 0 00.034-.03 10.007 10.007 0 012.542-1.87c1.291 1.633 2.262 3.277 2.749 4.658zm-4.498-4.664l-.02.014a10.417 10.417 0 00-.293.218l-.068.053a9.878 9.878 0 00-.086.069l-.08.063-.074.062-.087.073-.07.06-.089.076-.08.072-.077.07c-.053.047-.106.096-.159.146a8.766 8.766 0 01-1.504-1.232 8.856 8.856 0 01-1.119-1.391c.09-.096.178-.193.264-.29l.02-.022.103-.119.034-.04.089-.106.044-.054.077-.095.055-.07a10.452 10.452 0 00.132-.171l.047-.064.09-.123.024-.033c.864-1.212 1.292-2.35 1.681-3.387.433-1.154.807-2.15 1.693-3.036a4.13 4.13 0 012.94-1.218 4.13 4.13 0 012.94 1.218 4.13 4.13 0 011.218 2.94 4.13 4.13 0 01-1.218 2.94c-.885.885-1.882 1.26-3.036 1.693-1.039.39-2.178.818-3.39 1.684z"/><path d="M18.54 2.264a3.246 3.246 0 00-4.049.667.458.458 0 00.679.617 2.328 2.328 0 012.913-.49.458.458 0 10.457-.794zM14.347 3.907a.458.458 0 00-.622.184l-.01.021a.458.458 0 10.821.406.458.458 0 00-.19-.61zM13.61 16.256a.458.458 0 00-.47.787c.294.176.588.34.873.487.228.117.821.395 1.436.608a.458.458 0 00.3-.866 11.416 11.416 0 01-1.316-.558 14.785 14.785 0 01-.823-.458zM16.873 18.41a.466.466 0 00.124-.015.458.458 0 10-.186-.898.458.458 0 00.062.913z"/></g><defs><clipPath id="hclip0_0:197"><path d="M0 0h22v22H0z"/></clipPath></defs></symbol><symbol viewBox="0 0 22 22" id="food" xmlns="http://www.w3.org/2000/svg"><g clip-path="url(#iclip0_0:147)"><path d="M21.57 8.873h-3.523v-.91a.43.43 0 00-.43-.43H8.336a.43.43 0 000 .86h8.851v3.295a8.187 8.187 0 01-4.04 7.046H4.9a8.187 8.187 0 01-4.04-7.046V8.393h2.88a.43.43 0 000-.859H.428a.43.43 0 00-.429.43v3.724a9.012 9.012 0 003.389 7.046H.429a.43.43 0 00-.429.43A2.84 2.84 0 002.836 22h13.406a2.84 2.84 0 002.836-2.836.43.43 0 00-.43-.43h-3.99a9.076 9.076 0 001.99-2.22h1.213A4.144 4.144 0 0022 12.375V9.303a.43.43 0 00-.43-.43zm-3.398 10.72a1.98 1.98 0 01-1.93 1.548H2.836a1.98 1.98 0 01-1.93-1.547h17.266zm-.125-7.905v-.237h1.375v.924c0 .86-.7 1.561-1.561 1.561h-.098c.188-.73.284-1.486.284-2.248zm3.094.687a3.284 3.284 0 01-3.28 3.28h-.732c.138-.28.26-.567.367-.86h.365a2.423 2.423 0 002.42-2.42v-1.353a.43.43 0 00-.43-.43h-1.804v-.86h3.094v2.643zM9.434 2.378l-.224-.28a1.12 1.12 0 010-1.401.43.43 0 10-.674-.534 1.976 1.976 0 00.002 2.47l.224.28c.429.539.43 1.291.001 1.83l-.229.29a.43.43 0 10.673.534l.23-.29a2.32 2.32 0 00-.003-2.899zM11.816 3.344l-.224-.28a1.12 1.12 0 01-.001-1.401.43.43 0 00-.673-.534 1.976 1.976 0 00.002 2.47l.223.28c.43.539.43 1.292.002 1.83l-.23.29a.43.43 0 10.674.534l.229-.289a2.32 2.32 0 00-.002-2.9zM7.052 3.344l-.223-.28a1.12 1.12 0 01-.002-1.401.43.43 0 10-.673-.534 1.976 1.976 0 00.002 2.47l.224.28c.429.539.43 1.292.001 1.83L6.152 6a.43.43 0 10.673.534l.23-.289a2.32 2.32 0 00-.003-2.9z"/><path d="M6.457 7.66a.433.433 0 00-.607 0 .434.434 0 00-.126.303.433.433 0 00.733.304.432.432 0 000-.607zM15.555 11.258a.43.43 0 00-.43.43 6.156 6.156 0 01-1.775 4.3.43.43 0 00.61.605 7.022 7.022 0 002.024-4.905.43.43 0 00-.43-.43zM12.628 17.154a.43.43 0 00-.586-.163l-.01.006a.43.43 0 10.423.748l.01-.005a.43.43 0 00.163-.586z"/></g><defs><clipPath id="iclip0_0:147"><path d="M0 0h22v22H0z"/></clipPath></defs></symbol><symbol viewBox="0 0 4 3" id="goods-dropdown" xmlns="http://www.w3.org/2000/svg"><path d="M2 3l1.732-3H.268L2 3z"/></symbol><symbol viewBox="0 0 21 21" id="home" xmlns="http://www.w3.org/2000/svg"><g clip-path="url(#kclip0_0:211)"><path d="M20.59 20.18h-1.805v-3.24a.41.41 0 10-.82 0v3.24h-4.922v-7.793a.41.41 0 00-.41-.41H8.367a.41.41 0 00-.41.41v7.793H3.035v-9.27h.158a.41.41 0 00.29-.12L10.5 3.773l7.017 7.017a.41.41 0 00.29.12h.158v3.076a.41.41 0 00.82 0V10.91h1.805a.41.41 0 00.29-.7L10.79.12a.41.41 0 00-.58 0L6.355 3.976a.41.41 0 10.58.58L10.5.99l9.1 9.1h-1.623L10.79 2.903a.41.41 0 00-.58 0L3.023 10.09H1.4l3.238-3.237a.41.41 0 00-.58-.58L.12 10.21a.41.41 0 00.29.7h1.805v9.27H.41a.41.41 0 000 .82h20.18a.41.41 0 000-.82zm-8.367 0H8.777v-7.383h3.446v7.383z"/><path d="M16.652 11.977h-2.297a.41.41 0 00-.41.41v4.101c0 .227.184.41.41.41h2.297a.41.41 0 00.41-.41v-4.101a.41.41 0 00-.41-.41zm-.41 4.101h-1.476v-3.281h1.476v3.281zM6.645 11.977H4.348a.41.41 0 00-.41.41v4.101c0 .227.183.41.41.41h2.297a.41.41 0 00.41-.41v-4.101a.41.41 0 00-.41-.41zm-.41 4.101H4.757v-3.281h1.476v3.281zM10.5 6.74c-1.04 0-1.887.846-1.887 1.886s.847 1.887 1.887 1.887 1.887-.846 1.887-1.887c0-1.04-.847-1.886-1.887-1.886zm0 2.953a1.068 1.068 0 010-2.133 1.068 1.068 0 010 2.133zM10.01 16.198a.413.413 0 00-.58 0 .413.413 0 000 .58.414.414 0 00.58 0 .413.413 0 000-.58zM5.745 5.165a.413.413 0 00-.58 0 .413.413 0 000 .58.413.413 0 00.58 0 .413.413 0 000-.58zM18.665 15.063a.413.413 0 00-.58 0 .414.414 0 000 .58.413.413 0 00.58 0 .413.413 0 000-.58z"/></g><defs><clipPath id="kclip0_0:211"><path d="M0 0h21v21H0z"/></clipPath></defs></symbol><symbol viewBox="0 0 16 18" id="instagram" xmlns="http://www.w3.org/2000/svg"><path fill-rule="evenodd" clip-rule="evenodd" d="M8 .333c-2.173 0-2.445.011-3.298.052C3.85.43 3.269.574 2.76.788a3.913 3.913 0 00-1.417 1A4.29 4.29 0 00.42 3.324c-.198.552-.333 1.18-.372 2.101C.008 6.353 0 6.647 0 9s.01 2.649.048 3.575c.04.921.174 1.55.372 2.102.205.57.478 1.054.923 1.535.445.482.89.778 1.417 1 .51.214 1.09.36 1.942.403.853.043 1.125.052 3.298.052s2.445-.011 3.298-.052c.852-.043 1.433-.189 1.942-.403a3.913 3.913 0 001.417-1 4.29 4.29 0 00.923-1.535c.198-.553.333-1.181.372-2.102.04-.926.048-1.22.048-3.575 0-2.354-.01-2.649-.048-3.575-.04-.92-.174-1.549-.372-2.101a4.299 4.299 0 00-.923-1.536 3.904 3.904 0 00-1.417-1c-.51-.214-1.09-.36-1.942-.403C10.445.342 10.173.333 8 .333zm0 1.56c2.136 0 2.39.011 3.233.052.78.04 1.203.18 1.485.3.374.157.64.344.92.647.28.304.453.593.598.997.11.305.24.764.276 1.609.038.914.047 1.188.047 3.502s-.01 2.59-.048 3.503c-.035.845-.166 1.303-.276 1.608a2.718 2.718 0 01-.598.997c-.28.303-.546.49-.92.648-.282.119-.705.26-1.485.299-.844.043-1.097.05-3.233.05s-2.39-.01-3.233-.051c-.78-.04-1.203-.18-1.485-.3a2.462 2.462 0 01-.92-.647 2.718 2.718 0 01-.598-.997c-.11-.305-.24-.763-.276-1.608C1.45 11.588 1.44 11.313 1.44 9s.01-2.589.048-3.502c.035-.845.166-1.304.276-1.609.145-.404.318-.693.598-.997.28-.303.546-.49.92-.647.282-.12.705-.26 1.485-.3.844-.043 1.097-.05 3.233-.05v-.002zm0 2.658c2.27 0 4.108 1.993 4.108 4.45 0 2.46-1.84 4.45-4.108 4.45-2.27 0-4.108-1.993-4.108-4.45 0-2.459 1.84-4.45 4.108-4.45zm0 7.34c1.473 0 2.667-1.294 2.667-2.89 0-1.595-1.194-2.889-2.667-2.889-1.473 0-2.667 1.293-2.667 2.89 0 1.595 1.194 2.888 2.667 2.888zm5.23-7.517c0 .575-.43 1.04-.96 1.04s-.96-.465-.96-1.04c0-.574.43-1.04.96-1.04s.96.466.96 1.04z"/></symbol><symbol viewBox="0 0 22 22" id="leather" xmlns="http://www.w3.org/2000/svg"><path d="M12.891 20.15c-.674.2-1.306.503-1.848.884a6.596 6.596 0 00-3.21-1.137c-1.406-.11-2.787.24-4.02 1.017l-1.696-2.902c1.334-1.581 2.03-3.47 2.015-5.481-.014-1.95-.729-3.902-2.019-5.53l1.552-2.598a4.84 4.84 0 001.8.067.43.43 0 10-.126-.85 3.985 3.985 0 01-1.753-.126.43.43 0 00-.493.191L1.22 6.818a.43.43 0 00.04.498c2.663 3.155 2.667 7.415.01 10.359a.43.43 0 00-.052.504l2.083 3.564a.429.429 0 00.623.132c2.454-1.774 5.271-1.227 6.85.031a.429.429 0 00.536 0 5.417 5.417 0 011.824-.931.43.43 0 00-.244-.824zM20.825 7.316a.43.43 0 00.04-.498l-1.872-3.133a.43.43 0 00-.493-.191 4.05 4.05 0 01-3.428-.526c-.902-.617-1.444-1.53-1.525-2.572A.43.43 0 0013.12 0H8.967a.43.43 0 00-.428.396 3.297 3.297 0 01-.563 1.611.43.43 0 00.712.482 4.138 4.138 0 00.658-1.63h3.394c.198 1.13.856 2.14 1.847 2.818a4.92 4.92 0 003.834.726L19.973 7c-1.29 1.628-2.005 3.58-2.02 5.53-.014 2.012.682 3.9 2.016 5.482l-1.696 2.902a6.792 6.792 0 00-1.7-.776.43.43 0 00-.244.825 6.056 6.056 0 011.833.912.43.43 0 00.622-.131l2.083-3.564a.43.43 0 00-.052-.505c-2.657-2.944-2.653-7.204.01-10.36z"/><path d="M5.848 12.365a10.189 10.189 0 00-.06-.895.43.43 0 00-.854.096c.03.271.049.547.055.82a.43.43 0 00.43.419h.01a.43.43 0 00.42-.44zM7.046 5.38a.43.43 0 00.573.202 6.57 6.57 0 00.799-.455.43.43 0 00-.477-.715 5.69 5.69 0 01-.694.395.43.43 0 00-.201.574zM9.298 18.83a.43.43 0 00.28.54c.258.082.514.178.76.287a.429.429 0 10.347-.787 8.422 8.422 0 00-.847-.32.43.43 0 00-.54.28zM4.57 6.239c.131.003.263.002.393-.002a.43.43 0 00-.03-.86c-.19.007-.383.005-.572-.008a.428.428 0 00-.397.209l-.125.21a.43.43 0 00.731.45zM6.31 19.085a.425.425 0 00.058-.004c.267-.036.538-.056.808-.062a.43.43 0 00-.017-.859c-.302.006-.606.03-.904.069a.43.43 0 00.056.856zM3.958 17.687a.43.43 0 00-.597.11l-.046.066a.43.43 0 00-.02.464l.392.669a.43.43 0 10.742-.434l-.286-.489a.43.43 0 00-.185-.386zM4.346 9.176a.43.43 0 00.802-.31 11.002 11.002 0 00-.357-.82.43.43 0 00-.773.375c.12.247.23.501.328.755zM9.943 3.35a.43.43 0 00.37-.212c.107-.18.204-.368.291-.56h.626a.43.43 0 100-.86h-.859l-.025.001a.429.429 0 00-.427.272 5.011 5.011 0 01-.346.71.43.43 0 00.37.649zM4.74 16.157a.429.429 0 00.549-.263c.099-.281.186-.57.26-.86a.43.43 0 00-.834-.21 9.106 9.106 0 01-.237.785.43.43 0 00.263.548zM13.681 18.23a8.44 8.44 0 00-.89.168.43.43 0 00.205.835c.264-.065.532-.116.799-.15a.43.43 0 00-.114-.853zM17.927 8.187c.152 0 .299-.081.377-.224.131-.239.274-.477.425-.707a.43.43 0 10-.72-.47 11.38 11.38 0 00-.459.765.43.43 0 00.377.636zM17.14 13.512a.43.43 0 10-.855.087c.03.297.074.595.13.888a.43.43 0 00.845-.163 9.12 9.12 0 01-.12-.812zM17.085 9.73a.43.43 0 00-.523.31c-.075.288-.137.583-.187.876a.43.43 0 10.848.142c.045-.268.103-.54.17-.804a.43.43 0 00-.308-.523zM17.278 17.03c.133.267.279.53.435.785a.43.43 0 10.733-.448 9.48 9.48 0 01-.398-.719.43.43 0 10-.77.383zM13.205 4.787a.428.428 0 00.604-.065.43.43 0 00-.065-.604 5.379 5.379 0 01-.581-.543.43.43 0 00-.632.583c.207.224.434.436.674.63zM16.605 6.195a.43.43 0 00.05-.856 5.83 5.83 0 01-.785-.151.43.43 0 10-.22.83c.296.078.6.137.902.174a.47.47 0 00.053.003zM17 19.372a.428.428 0 00.542-.276.43.43 0 00-.277-.541 8.27 8.27 0 00-.876-.232.43.43 0 00-.173.842c.263.054.527.123.784.207zM7.057 3.88a.43.43 0 100-.86.43.43 0 000 .86zM14.732 19.877a.43.43 0 100 .86.43.43 0 000-.86z"/></symbol><symbol viewBox="0 0 17 15" id="love" xmlns="http://www.w3.org/2000/svg"><path d="M4.985 11.308a.71.71 0 00-.008-1.002c-2.296-2.257-3.56-4.26-3.56-5.64A3.191 3.191 0 014.604 1.48a3.191 3.191 0 013.188 3.188.709.709 0 001.416 0 3.191 3.191 0 013.188-3.188 3.191 3.191 0 013.187 3.188c0 2.765-4.772 6.938-7.08 8.68-.33-.252-.836-.647-1.428-1.144a.708.708 0 00-.91 1.084 35.985 35.985 0 001.921 1.517.705.705 0 00.828 0C9.74 14.21 17 8.864 17 4.667A4.61 4.61 0 0012.396.063c-1.639 0-3.08.86-3.896 2.152A4.606 4.606 0 004.604.063 4.61 4.61 0 000 4.667c0 1.813 1.34 4.05 3.984 6.65a.709.709 0 001.001-.009z"/></symbol><symbol viewBox="0 0 14 14" id="marker" xmlns="http://www.w3.org/2000/svg"><path d="M7 0a5.076 5.076 0 00-5.07 5.07c0 3.47 4.537 8.563 4.73 8.778a.457.457 0 00.68 0c.193-.215 4.73-5.308 4.73-8.778A5.076 5.076 0 007 0zm0 12.844C5.473 11.03 2.843 7.452 2.843 5.07A4.162 4.162 0 017 .913a4.162 4.162 0 014.157 4.157c0 2.382-2.63 5.96-4.157 7.774z"/><path d="M7 2.52a2.554 2.554 0 00-2.551 2.55A2.554 2.554 0 007 7.621a2.554 2.554 0 002.55-2.55A2.554 2.554 0 007 2.518zm0 4.188A1.64 1.64 0 015.362 5.07 1.64 1.64 0 017 3.432 1.64 1.64 0 018.638 5.07 1.64 1.64 0 017 6.708z"/></symbol><symbol viewBox="0 0 10 17" id="next" xmlns="http://www.w3.org/2000/svg"><path fill-rule="evenodd" clip-rule="evenodd" d="M2.041 16.662L9.65 9.316a1.126 1.126 0 000-1.632L2.04.338a1.226 1.226 0 00-1.69 0 1.126 1.126 0 000 1.632l6.664 6.435a1.13 1.13 0 000 .19L.35 15.03a1.126 1.126 0 000 1.633c.467.45 1.224.45 1.691 0z"/></symbol><symbol viewBox="0 0 21 21" id="polo-shirt" xmlns="http://www.w3.org/2000/svg"><g clip-path="url(#qclip0_0:93)"><path d="M10.5 21a.41.41 0 110-.82.41.41 0 010 .82z"/><path d="M4.348 6.152a.41.41 0 01.41.41V20.18h3.896a.41.41 0 010 .82H4.348a.41.41 0 01-.41-.41v-9.926H1.477a.41.41 0 01-.41-.41v-4.5a4.095 4.095 0 013.106-3.98l2.046-.511L7.793.082A.415.415 0 018.039 0h4.922c.085 0 .174.028.246.082l1.574 1.18 2.046.512a4.095 4.095 0 013.107 3.98v4.5a.41.41 0 01-.41.41h-2.462v9.926a.41.41 0 01-.41.41h-4.306a.41.41 0 010-.82h3.896V6.563a.41.41 0 11.82 0v3.28h2.051v-4.09a3.276 3.276 0 00-2.485-3.183l-1.758-.44-1.11 3.332a.41.41 0 01-.58.233l-1.905-.997-.365.73v2.365a.41.41 0 01-.82 0V5.429l-.365-.73-1.906.996a.41.41 0 01-.58-.233L6.13 2.13l-1.757.44a3.276 3.276 0 00-2.485 3.182v4.09h2.05v-3.28a.41.41 0 01.41-.41zM10.5 4.415L12.297.82H8.703L10.5 4.415zm2.634.33l.985-2.954-1.011-.758-1.466 2.932 1.492.78zm-5.268 0l1.492-.78-1.466-2.932-1.011.758.985 2.954z"/></g><defs><clipPath id="qclip0_0:93"><path transform="matrix(-1 0 0 1 21 0)" d="M0 0h21v21H0z"/></clipPath></defs></symbol><symbol viewBox="0 0 10 17" id="prev" xmlns="http://www.w3.org/2000/svg"><path fill-rule="evenodd" clip-rule="evenodd" d="M7.959 16.662L.35 9.316a1.126 1.126 0 010-1.632L7.96.338a1.226 1.226 0 011.69 0c.468.45.468 1.182 0 1.632L2.986 8.405a1.13 1.13 0 010 .19L9.65 15.03c.467.451.467 1.182 0 1.633-.467.45-1.224.45-1.691 0z"/></symbol><symbol viewBox="0 0 17 17" id="scales" xmlns="http://www.w3.org/2000/svg"><path d="M.053 10.378l2.99-5.936a.5.5 0 01.277-.245l3.686-1.341C6.956 1.423 8.78.736 9.68 1.883L13.36.543a.499.499 0 01.615.244l2.972 5.902a.52.52 0 01.053.24 3.492 3.492 0 01-3.488 3.472 3.492 3.492 0 01-3.488-3.474.52.52 0 01.054-.24l2.434-4.775-2.517.916a1.485 1.485 0 01-.997 1.386v9.208h.088a2.57 2.57 0 012.567 2.566.498.498 0 01-.498.498h-5.31a.498.498 0 01-.498-.498 2.57 2.57 0 012.567-2.566h.088V4.214a1.483 1.483 0 01-.632-.43L4.185 4.942l2.736 5.435a.52.52 0 01.053.24 3.491 3.491 0 01-3.487 3.471A3.491 3.491 0 010 10.618a.513.513 0 01.053-.24zm13.474-8.265l-2.192 4.302h4.358l-2.166-4.302zm-.015 7.292c1.204 0 2.21-.858 2.442-1.994H11.07a2.496 2.496 0 002.442 1.994zm-5.598 5.013c-.692 0-1.28.45-1.49 1.072h4.151a1.573 1.573 0 00-1.489-1.072H7.914zm.94-11.261a.5.5 0 10-.71-.707.5.5 0 00.71.707zM3.487 5.774l-2.181 4.33h4.36l-2.18-4.33zm0 7.319c1.202 0 2.209-.857 2.44-1.993H1.046a2.495 2.495 0 002.441 1.993z"/></symbol><symbol viewBox="0 0 17 17" id="search" xmlns="http://www.w3.org/2000/svg"><path d="M15.83 15.004l-3.662-3.66a6.283 6.283 0 001.459-4.03A6.32 6.32 0 007.313 1 6.32 6.32 0 001 7.313a6.32 6.32 0 006.313 6.314c1.531 0 2.936-.549 4.03-1.459l3.661 3.661a.581.581 0 00.825 0 .583.583 0 000-.825zM2.165 7.314a5.153 5.153 0 015.147-5.148 5.153 5.153 0 015.147 5.147 5.152 5.152 0 01-5.147 5.147 5.153 5.153 0 01-5.147-5.147z" stroke="#553280" stroke-width=".2"/></symbol><symbol viewBox="0 0 4 3" id="select-arr" xmlns="http://www.w3.org/2000/svg"><path d="M1.997 3l1.732-3H.264l1.733 3z"/></symbol><symbol viewBox="0 0 23 23" id="shovel" xmlns="http://www.w3.org/2000/svg"><path d="M22.325 4.269L18.73.675a1.104 1.104 0 00-1.525 0 1.072 1.072 0 00-.067 1.443l-1.16 1.16c-.339.34-.526.79-.526 1.27v1.053l-6.11 6.11-.95-.951a1.163 1.163 0 00-.816-.338c-.359 0-.691.162-.912.445l-4.229 5.438a3.05 3.05 0 00-.64 1.863c0 .492.126.97.351 1.401a2.5 2.5 0 00-.33.948C.989 20.675.36 21.406.36 22.28v.36h12.22a1.439 1.439 0 00.243-2.854 2.163 2.163 0 00-2.04-1.459c-.278 0-.548.054-.807.163a2.816 2.816 0 00-.285-.256l2.443-1.9c.283-.22.445-.553.445-.912 0-.304-.123-.601-.338-.816l-.95-.95 6.11-6.11h1.052c.48 0 .931-.187 1.27-.527l1.16-1.16a1.066 1.066 0 001.443-.067c.203-.203.316-.474.316-.762a1.07 1.07 0 00-.316-.762zm-5.75 1.227a.361.361 0 01.254-.105c.43 0 .78.35.78.78a.36.36 0 01-.105.254l-6.936 6.936-1.153.577-.353-.353.577-1.153 6.936-6.936zm-6.51 13.75c.23-.132.47-.2.716-.2A1.44 1.44 0 0112.19 20.2l.06.298.303-.009c.019 0 .037-.003.025-.004a.72.72 0 010 1.438H1.14a1.08 1.08 0 011.016-.719h.36v-.36c0-.99.806-1.796 1.796-1.796.385 0 .756.131 1.065.36a1.798 1.798 0 00-1.783 1.796h.719a1.08 1.08 0 011.078-1.078 1.08 1.08 0 011.078 1.078h.718c0-.784-.507-1.445-1.208-1.69l.064-.109a2.165 2.165 0 011.863-1.076c.666 0 1.284.302 1.697.83l.192.245.27-.157zm1.794-3.823a.434.434 0 01-.168.345l-2.661 2.07a2.864 2.864 0 00-1.124-.229c-.885 0-1.72.415-2.26 1.103a2.507 2.507 0 00-2.988.24 2.307 2.307 0 01-.142-.784c0-.513.173-1.018.487-1.422l4.23-5.437a.45.45 0 01.652-.04l1.021 1.02-.718 1.438.288.289-1.183 1.183.508.508 1.183-1.183.289.288 1.438-.718 1.02 1.02a.44.44 0 01.128.31zm7.355-8.91a1.072 1.072 0 01-.763.315H18.1c.146-.188.23-.415.23-.657a1.5 1.5 0 00-1.5-1.5c-.242 0-.47.084-.657.23V4.55c0-.289.112-.56.316-.763l1.152-1.153 2.726 2.727-1.152 1.152zm2.603-1.228a.364.364 0 01-.509 0l-3.593-3.593a.353.353 0 01-.106-.255c0-.097.037-.185.106-.254a.353.353 0 01.254-.105c.097 0 .185.037.254.105l3.594 3.594a.353.353 0 01.105.254.353.353 0 01-.105.254z"/></symbol><symbol viewBox="0 0 12 12" id="star" xmlns="http://www.w3.org/2000/svg"><path fill-rule="evenodd" clip-rule="evenodd" d="M5.808.658c.056-.192.328-.192.384 0l1.12 3.843a.2.2 0 00.193.144h3.892a.2.2 0 01.12.36l-3.074 2.29a.2.2 0 00-.067.23l1.469 3.893a.2.2 0 01-.298.237L6.11 9.365a.2.2 0 00-.222 0l-3.436 2.29a.2.2 0 01-.298-.237l1.47-3.892a.2.2 0 00-.068-.231L.484 5.005a.2.2 0 01.12-.36h3.891a.2.2 0 00.192-.144L5.808.658z"/></symbol><symbol viewBox="0 0 19 21" id="user" xmlns="http://www.w3.org/2000/svg"><path d="M9.424 11.315h.139c1.274-.021 2.305-.47 3.066-1.326 1.674-1.887 1.396-5.123 1.365-5.432-.108-2.317-1.204-3.426-2.109-3.944-.674-.387-1.46-.596-2.34-.613h-.073c-.483 0-1.431.078-2.34.596-.913.517-2.026 1.626-2.135 3.961-.03.31-.309 3.545 1.365 5.432.757.857 1.788 1.305 3.062 1.326zM6.158 4.666c0-.013.004-.026.004-.035.144-3.118 2.357-3.453 3.305-3.453H9.52c1.174.027 3.17.505 3.305 3.453 0 .013 0 .026.004.035.004.03.309 2.988-1.074 4.545-.548.617-1.279.921-2.24.93h-.043c-.957-.008-1.692-.313-2.235-.93-1.379-1.549-1.083-4.519-1.079-4.545z"/><path d="M18.43 16.682v-.013c0-.035-.004-.07-.004-.109-.026-.861-.083-2.874-1.97-3.518l-.044-.013c-1.96-.5-3.592-1.63-3.61-1.644a.586.586 0 10-.673.961c.074.052 1.805 1.257 3.97 1.814 1.014.36 1.127 1.443 1.157 2.435 0 .039 0 .074.004.109.005.391-.021.995-.091 1.343-.704.4-3.466 1.783-7.667 1.783-4.183 0-6.962-1.387-7.67-1.787-.07-.348-.101-.952-.092-1.344 0-.035.004-.07.004-.109.03-.991.144-2.074 1.157-2.435 2.166-.556 3.896-1.765 3.97-1.813a.586.586 0 10-.674-.961c-.017.013-1.64 1.143-3.61 1.643a.546.546 0 00-.043.014C.657 13.686.6 15.699.574 16.556c0 .039 0 .074-.004.108v.013c-.004.227-.009 1.388.222 1.97a.558.558 0 00.226.274c.13.087 3.257 2.08 8.489 2.08 5.231 0 8.358-1.997 8.488-2.08.1-.065.183-.16.226-.273.218-.579.213-1.74.21-1.966z"/></symbol><symbol viewBox="0 0 18 12" id="vk" xmlns="http://www.w3.org/2000/svg"><path fill-rule="evenodd" clip-rule="evenodd" d="M16.952 1.317c.117-.423 0-.734-.557-.734h-1.842c-.469 0-.685.269-.802.565 0 0-.936 2.473-2.263 4.08-.43.465-.625.613-.859.613-.117 0-.287-.148-.287-.57V1.317c0-.508-.136-.734-.526-.734H6.921a.46.46 0 00-.469.459c0 .48.664.592.732 1.945v2.939c0 .644-.107.761-.341.761-.625 0-2.144-2.485-3.044-5.328-.177-.552-.354-.776-.825-.776H1.131C.606.583.5.852.5 1.148c0 .528.625 3.15 2.908 6.617 1.523 2.368 3.667 3.652 5.619 3.652 1.17 0 1.316-.286 1.316-.777V8.85c0-.57.11-.683.481-.683.274 0 .742.148 1.835 1.29 1.248 1.353 1.454 1.96 2.157 1.96h1.842c.526 0 .79-.286.637-.848-.166-.561-.762-1.375-1.553-2.339-.43-.55-1.074-1.142-1.269-1.437-.273-.381-.195-.55 0-.888 0 0 2.245-3.426 2.479-4.588z"/></symbol></svg>